<?xml version="1.0" encoding="utf-8"?>
<!-- Generator: Adobe Illustrator 27.2.0, SVG Export Plug-In . SVG Version: 6.00 Build 0)  -->
<svg version="1.1" id="Layer_2_00000156562849223092923370000005701437152840334209_"
	 xmlns="http://www.w3.org/2000/svg" xmlns:xlink="http://www.w3.org/1999/xlink" x="0px" y="0px" viewBox="0 0 175 50"
	 style="enable-background:new 0 0 175 50;" xml:space="preserve">
<style type="text/css">
	.st0{fill:#FFFFFF;}
</style>
<g>
	<polygon class="st0" points="21.7,17.4 28.4,17.4 28.4,15.5 21.7,15.5 21.7,11.6 28.7,11.6 28.7,9.7 19.7,9.7 19.7,24 28.8,24 
		29.1,22 21.7,22 	"/>
	<path class="st0" d="M35.3,15.5c-2.5-0.6-2.9-1.1-2.9-2.1c0-1.5,1.3-1.9,2.4-1.9c1.6,0,2.5,0.7,2.8,2l0.1,0.4h2l-0.1-0.6
		c-0.2-1.8-1.5-3.8-4.8-3.8c-3.2,0-4.6,1.9-4.6,3.9c0,2.4,1.7,3.3,4.4,4c2.9,0.7,3.2,1.6,3.2,2.7c0,1.4-1,2.2-2.8,2.2
		c-1.8,0-2.9-0.8-3.2-2.4l-0.1-0.4h-2l0.1,0.6c0.2,1.2,1,4.1,5.2,4.1c3.7,0,4.9-2.2,4.9-4.1C39.9,18.3,39.4,16.5,35.3,15.5z"/>
	<rect x="41.8" y="9.7" class="st0" width="2" height="14.3"/>
	<path class="st0" d="M55.8,23.7L56,24h1.7v-8h-6.2v1.9h4.2c-0.1,3-1.2,4.2-3.7,4.2c-3.1,0-4.2-2.7-4.2-5.3c0-1.6,0.4-5.4,4.3-5.4
		c1.9,0,3.1,0.9,3.7,2.6l0.1,0.4h2l-0.1-0.6c-0.5-2.7-2.6-4.4-5.6-4.4c-3.9,0-6.4,2.9-6.4,7.4c0,4.4,2.4,7.2,6.2,7.2
		c1.6,0,2.9-0.4,3.8-1.3C55.7,23.4,55.8,23.6,55.8,23.7z"/>
	<path class="st0" d="M62.1,16.3c0-1.2,0-2.3,0-3.3c0.9,1.4,2.2,3.4,3.4,5.4L69,24h2.2V9.7h-2l0,7.3c0,1.2,0,2.3,0,3.4
		c-1.3-2-3.4-5.4-5.1-8l-1.7-2.7H60V24h2L62.1,16.3z"/>
	<path class="st0" d="M82.4,9.7L77.2,24h2.1l1.7-4.6h4.8l1.7,4.6h2.2L84.3,9.7H82.4z M81.7,17.4l0.8-2.2c0.4-1,0.6-1.8,0.9-2.5
		c0.2,0.5,0.4,1.2,0.8,2c0.3,0.7,0.6,1.6,1,2.7H81.7z"/>
	<path class="st0" d="M99.9,17c0,1.2,0,2.3,0,3.4c-1.3-2-3.4-5.4-5.1-8L93,9.7h-2.3V24h2l0-7.7c0-1.2,0-2.3,0-3.3
		c0.9,1.4,2.2,3.4,3.4,5.4l3.5,5.5h2.2V9.7h-2L99.9,17z"/>
	<path class="st0" d="M116.2,16.7c0-4.2-2.7-7-6.6-7h-4.9V24h4.8C113.5,24,116.2,21,116.2,16.7z M106.8,22V11.6h2.7
		c3.5,0,4.7,2.6,4.7,5.1c0,3.3-1.7,5.2-4.7,5.2H106.8z"/>
	<path class="st0" d="M132.8,13.9c0-2.5-1.8-4.2-4.6-4.2H123V24h2v-5.8h3C131,18.2,132.8,16.5,132.8,13.9z M128.2,16.2H125v-4.6h3.2
		c1.5,0,2.4,0.8,2.4,2.3C130.7,15.5,129.8,16.2,128.2,16.2z"/>
	<path class="st0" d="M143.9,21.3l0-1.1c0-1.7-0.5-2.8-1.4-3.5c1-0.6,1.7-1.8,1.7-3.1c0-2.5-1.7-4-4.5-4h-5.2V24h2v-6.2h2.7
		c2.3,0,2.7,0.7,2.7,2.6l0,0.9c0,1,0,1.9,0.2,2.4l0.1,0.3h2.2l-0.3-0.7C143.9,22.9,143.9,22,143.9,21.3z M139.1,15.8h-2.7v-4.2h3
		c1.7,0,2.6,0.7,2.6,2.1C142,14.7,141.7,15.8,139.1,15.8z"/>
	<rect x="146.3" y="9.7" class="st0" width="2" height="14.3"/>
	<path class="st0" d="M160.3,17c0,1.2,0,2.3,0,3.4c-1.3-2-3.4-5.4-5.1-8l-1.7-2.7h-2.3V24h2l0-7.7c0-1.2,0-2.3,0-3.3
		c0.9,1.4,2.2,3.4,3.4,5.4l3.5,5.5h2.2V9.7h-2L160.3,17z"/>
	<polygon class="st0" points="163.4,9.7 163.4,11.6 167.8,11.6 167.8,24 169.9,24 169.9,11.6 174.3,11.6 174.3,9.7 	"/>
	<path class="st0" d="M57.2,32.4L52,46.7h2.1l1.7-4.6h4.8l1.7,4.6h2.2l-5.4-14.3H57.2z M56.5,40.2l0.8-2.2c0.4-1,0.6-1.8,0.9-2.5
		c0.2,0.5,0.4,1.2,0.8,2c0.3,0.7,0.6,1.6,1,2.7H56.5z"/>
	<path class="st0" d="M74.5,42.2l-0.1,0.3c-0.7,1.7-1.7,2.4-3.4,2.4c-3.1,0-4.2-2.9-4.2-5.3c0-2.5,1.1-5.4,4.1-5.4
		c1.8,0,2.9,0.8,3.5,2.5l0.1,0.3h2l-0.1-0.6c-0.5-2.6-2.5-4.2-5.4-4.2c-4.3,0-6.3,3.8-6.3,7.3c0,4.3,2.5,7.3,6.3,7.3
		c2.7,0,4.6-1.4,5.4-4.1l0.2-0.6H74.5z"/>
	<path class="st0" d="M81.7,32.4l-5.2,14.3h2.1l1.7-4.6h4.8l1.7,4.6H89l-5.4-14.3H81.7z M81,40.2l0.8-2.2c0.4-1,0.6-1.8,0.9-2.5
		c0.2,0.5,0.4,1.2,0.8,2c0.3,0.7,0.6,1.6,1,2.7H81z"/>
	<path class="st0" d="M94.9,32.4h-4.9v14.3h4.8c3.9,0,6.6-3,6.6-7.2C101.5,35.3,98.9,32.4,94.9,32.4z M94.8,44.8h-2.7V34.4h2.7
		c3.5,0,4.7,2.6,4.7,5.1C99.4,42.8,97.7,44.8,94.8,44.8z"/>
	<polygon class="st0" points="105.4,40.2 112.1,40.2 112.1,38.2 105.4,38.2 105.4,34.4 112.5,34.4 112.5,32.4 103.4,32.4 
		103.4,46.7 112.6,46.7 112.9,44.8 105.4,44.8 	"/>
	<path class="st0" d="M125.3,32.7c-1.5,3.5-3.4,8.4-4.3,10.8c-0.9-2.5-2.7-7.2-4.1-10.8l-0.1-0.3h-2.4v14.3h2v-6.1
		c0-1.1,0-2.4,0-3.7c1.1,3.1,2.8,7.4,3.6,9.5l0.1,0.3h1.7l1.1-2.8c1-2.5,2.1-5.3,2.9-7.3c0,1,0,2.2,0,3.5v6.6h2V32.4h-2.3
		L125.3,32.7z"/>
	<path class="st0" d="M138.6,32.4l-0.1,0.2c-1.1,1.8-2.9,4.9-3.9,6.4c-0.7-1.2-1.8-3.2-2.8-4.9l-1-1.8h-2.3l5.1,8.8v5.5h2l0-5.5
		l5.4-8.8H138.6z"/>
	<path class="st0" d="M4.7,3.1v3.2h1.6c5.8,0,10.4,4.7,10.4,10.4c0,5.8-4.7,10.4-10.4,10.4H4.7v3.2c7.5,0,13.6-6.1,13.6-13.6
		S12.2,3.1,4.7,3.1z"/>
	<rect x="0.9" y="3.1" class="st0" width="2.9" height="5.4"/>
	<rect x="0.9" y="24.9" class="st0" width="2.9" height="5.4"/>
	<polygon class="st0" points="2.8,8.9 2,8.9 1.4,8.9 0.7,11 1.4,13.9 2,13.9 2,10.9 2.8,10.9 2.8,13.9 3.4,13.9 4.1,11 3.4,8.9 	"/>
	<polygon class="st0" points="2.8,19.2 2.8,22.2 2,22.2 2,19.2 1.4,19.2 0.7,22.1 1.4,24.2 2,24.2 2.8,24.2 3.4,24.2 4.1,22.1 
		3.4,19.2 	"/>
	<rect x="0.9" y="14.9" class="st0" width="2.9" height="0.5"/>
	<rect x="0.9" y="15.8" class="st0" width="2.9" height="0.5"/>
	<rect x="0.9" y="16.6" class="st0" width="2.9" height="0.5"/>
	<rect x="0.9" y="17.5" class="st0" width="2.9" height="0.5"/>
</g>
</svg>
